# xmcd
#
# Track frame offsets: 
#        150
#        23595
#        47071
#        65554
#        85972
#        97038
#        119057
#        138075
#        153240
#        175716
#        201080
#        218667
#        233665
#        254777
#        277044
#        299394
#        316899
#        329814
#
# Disc length: 4559 seconds
#
# Revision: 0
# Processed by: cddbd v1.4PL0 Copyright (c) Steve Scherf et al.
# Submitted via: ExactAudioCopy v0.90b4
#
DISCID=1011cd12
DTITLE=Various Artist - GUITAR
DYEAR=2003
DGENRE=Instrumental
TTITLE0=COBO/BREEZE
TTITLE1=ARMIK/RUBIA
TTITLE2=FRANCIS GOYA/AMOR DE MIS AMORES
TTITLE3=GOVI/BUMBLEBEAT
TTITLE4=JESSE COOK/SALSA DE NOCHE
TTITLE5=NOUSY/MY LOVE
TTITLE6=NOVA MENCO/TIME OF LOVE
TTITLE7=OTTMAR LIEBERT/LA VALETTA
TTITLE8=DAN SCHWARTZ/SAD LITTLE GIRL
TTITLE9=CALIDO/EL CALOR
TTITLE10=GASAN BAGIROV/AND I LOVE HER
TTITLE11=ACOUSTIC ALCHEMY/LAST SUMMER SONG
TTITLE12=ARMIK/DANCING SHADOWS
TTITLE13=IN CREDO/SIESTA DEL SOL
TTITLE14=JESSE COOK/CANCION TRISTE
TTITLE15=SHAHIN and SEPEHR/OCTOBER MOON
TTITLE16=OSCAR LOPEZ/CLASSICAL SOUL
TTITLE17=STING/SAINT AGNES AND THE BURNING TRAIN
EXTD=
EXTT0=
EXTT1=
EXTT2=
EXTT3=
EXTT4=
EXTT5=
EXTT6=
EXTT7=
EXTT8=
EXTT9=
EXTT10=
EXTT11=
EXTT12=
EXTT13=
EXTT14=
EXTT15=
EXTT16=
EXTT17=
PLAYORDER=
